<svg xmlns="http://www.w3.org/2000/svg" viewBox="0 0 747.73 145.17"><defs><style>.cls-1{fill:#222;}.cls-2{fill:none;stroke:#222;stroke-miterlimit:10;stroke-width:2px;}.cls-3{fill:#c00;}</style></defs><g id="Ebene_2" data-name="Ebene 2"><g id="Ebene_1-2" data-name="Ebene 1"><circle class="cls-1" cx="631.2" cy="43.12" r="4.97"/><path class="cls-1" d="M631.2,85.49a42.37,42.37,0,1,1,42.36-42.37A42.42,42.42,0,0,1,631.2,85.49Zm0-30.55a10.91,10.91,0,1,0,10.9,10.91A10.93,10.93,0,0,0,631.2,54.94Zm22.73-22.72a10.9,10.9,0,1,0,10.9,10.9A10.91,10.91,0,0,0,653.93,32.22Zm-45.46,0a10.9,10.9,0,1,0,10.9,10.9A10.91,10.91,0,0,0,608.47,32.22Zm22.73,3.55a7.35,7.35,0,1,0,7.35,7.35A7.36,7.36,0,0,0,631.2,35.77Zm0-26.28a10.91,10.91,0,1,0,10.9,10.9A10.92,10.92,0,0,0,631.2,9.49Z"/><path class="cls-1" d="M631.2,1a42.12,42.12,0,1,1-42.12,42.12A42.17,42.17,0,0,1,631.2,1m0,30.55A11.16,11.16,0,1,0,620,20.39,11.17,11.17,0,0,0,631.2,31.55m22.73,22.72a11.15,11.15,0,1,0-11.16-11.15,11.16,11.16,0,0,0,11.16,11.15m-45.46,0a11.15,11.15,0,1,0-11.15-11.15,11.16,11.16,0,0,0,11.15,11.15m22.73-3.55a7.6,7.6,0,1,0-7.6-7.6,7.61,7.61,0,0,0,7.6,7.6m0,26.28A11.16,11.16,0,1,0,620,65.85,11.16,11.16,0,0,0,631.2,77m0-76.5a42.62,42.62,0,1,0,42.62,42.62A42.62,42.62,0,0,0,631.2.5Zm0,30.55a10.66,10.66,0,1,1,10.65-10.66A10.66,10.66,0,0,1,631.2,31.05Zm22.73,22.72a10.65,10.65,0,1,1,10.65-10.65,10.65,10.65,0,0,1-10.65,10.65Zm-45.46,0a10.65,10.65,0,1,1,10.65-10.65,10.65,10.65,0,0,1-10.65,10.65Zm22.73-3.55a7.1,7.1,0,1,1,7.1-7.1,7.1,7.1,0,0,1-7.1,7.1Zm0,26.28a10.66,10.66,0,1,1,10.65-10.65A10.65,10.65,0,0,1,631.2,76.5Z"/><path class="cls-2" d="M705.49,144.25c-26.71-11.56-35.72-41.42-27.65-72.35,9.31-35.7-6-63.42-37.23-69.13"/><path class="cls-1" d="M272.45,83.08a24.81,24.81,0,0,1-10.31-8.21,21,21,0,0,1-3.87-12.13H270a15.39,15.39,0,0,0,4.89,10q4.28,4,12.48,4,7.84,0,12.37-3.92a12.71,12.71,0,0,0,4.53-10.08,11.44,11.44,0,0,0-2.66-7.84A16.91,16.91,0,0,0,295,50.32a101.84,101.84,0,0,0-10.74-3.38,94.71,94.71,0,0,1-13.34-4.35,21.39,21.39,0,0,1-8.56-6.81q-3.57-4.65-3.56-12.49a21.58,21.58,0,0,1,3.5-12.19,22.77,22.77,0,0,1,9.83-8.2A34.62,34.62,0,0,1,286.63,0Q298.45,0,306,5.91a21.86,21.86,0,0,1,8.5,15.69H302.44a13.09,13.09,0,0,0-5.07-8.51q-4.47-3.67-11.83-3.68-6.87,0-11.22,3.56t-4.34,10a10.79,10.79,0,0,0,2.59,7.48,16.64,16.64,0,0,0,6.4,4.4q3.79,1.52,10.68,3.44A100.2,100.2,0,0,1,303,42.78a22.35,22.35,0,0,1,8.69,6.87q3.61,4.65,3.62,12.61a22.19,22.19,0,0,1-3.26,11.59,23.91,23.91,0,0,1-9.65,8.8A31.79,31.79,0,0,1,287.35,86,36,36,0,0,1,272.45,83.08Z"/><path class="cls-1" d="M383.28,1.09V10H360.35V85.19h-11V10h-23V1.09Z"/><path class="cls-1" d="M407.53,1.09V54.3q0,11.22,5.49,16.65t15.26,5.43q9.66,0,15.15-5.43t5.49-16.65V1.09h11V54.18q0,10.5-4.23,17.67a26.42,26.42,0,0,1-11.4,10.68,38.8,38.8,0,0,1-32.21,0,26.14,26.14,0,0,1-11.35-10.68q-4.15-7.17-4.16-17.67V1.09Z"/><path class="cls-1" d="M528.25,6.21A36.07,36.07,0,0,1,543.7,20.87q5.37,9.54,5.37,22.45T543.7,65.7a35.39,35.39,0,0,1-15.45,14.48q-10.08,5-23.83,5H478.24V1.09h26.18Q518.18,1.09,528.25,6.21Zm1,61.3q8.57-8.63,8.56-24.19t-8.62-24.5Q520.6,10,504.42,10h-15.2V76.14h15.2Q520.71,76.14,529.28,67.51Z"/><path class="cls-1" d="M574.52,1.09v84.1h-11V1.09Z"/><path class="cls-1" d="M704.83,83.08a24.84,24.84,0,0,1-10.32-8.21,21,21,0,0,1-3.86-12.13h11.71a15.43,15.43,0,0,0,4.88,10q4.29,4,12.49,4,7.85,0,12.37-3.92a12.7,12.7,0,0,0,4.52-10.08A11.44,11.44,0,0,0,734,54.9a16.87,16.87,0,0,0-6.64-4.58,100.34,100.34,0,0,0-10.74-3.38,94.51,94.51,0,0,1-13.33-4.35,21.49,21.49,0,0,1-8.57-6.81q-3.56-4.65-3.56-12.49a21.66,21.66,0,0,1,3.5-12.19,22.85,22.85,0,0,1,9.84-8.2A34.62,34.62,0,0,1,719,0q11.82,0,19.36,5.91a21.84,21.84,0,0,1,8.51,15.69H734.81a13,13,0,0,0-5.06-8.51q-4.47-3.67-11.83-3.68-6.87,0-11.22,3.56t-4.34,10A10.79,10.79,0,0,0,705,30.41a16.64,16.64,0,0,0,6.4,4.4q3.79,1.52,10.67,3.44a100.41,100.41,0,0,1,13.4,4.53,22.35,22.35,0,0,1,8.69,6.87q3.61,4.65,3.62,12.61a22.19,22.19,0,0,1-3.26,11.59,23.88,23.88,0,0,1-9.66,8.8A31.75,31.75,0,0,1,719.73,86,36,36,0,0,1,704.83,83.08Z"/><path class="cls-3" d="M82.93.5,51.8,85.38H31.13L0,.5H18.24L41.59,68,64.81.5Z"/><path class="cls-3" d="M145.56.5V14.24H110.17V36h27.12v13.5H110.17V85.38h-17V.5Z"/><path class="cls-3" d="M208.42,85.38,190.06,56.8,173.4,85.38H154.19l26.75-42.8L153.82.5H173.4L191.76,29,208.3.5h19.21L200.88,43.18,228,85.38Z"/></g></g></svg>