<svg xmlns="http://www.w3.org/2000/svg" viewBox="0 0 623.89 171.47"><defs><style>.cls-1{fill:#c00;}.cls-2{fill:#222;}</style></defs><g id="Ebene_2" data-name="Ebene 2"><g id="Ebene_1-2" data-name="Ebene 1"><path class="cls-1" d="M181.42,124.35q11.76-9.72,18.54-16a76.76,76.76,0,0,0,11.46-13.08Q216.1,88.47,216.1,82q0-4.92-2.28-7.68T207,71.55A8.44,8.44,0,0,0,199.84,75q-2.58,3.42-2.58,9.66h-19.8q.24-10.2,4.38-17a25.44,25.44,0,0,1,10.92-10.08,34.48,34.48,0,0,1,15.06-3.24q14.28,0,21.54,7.32t7.26,19.08q0,12.84-8.76,23.82a124.76,124.76,0,0,1-22,21h396l22,17-446.19.09V127.35Q181.78,124.11,181.42,124.35Z"/><path class="cls-1" d="M530.64,54.58v13.7H502v14.8h21.4v13.3H501.89V123H484.94V54.58Z"/><path class="cls-1" d="M600.89,142.5l-27.55-38.22L561.89,123h-21l23-32.92-23-34.5h19.9l14.1,21.2,12.4-21.2h19.4L584.34,91l39.55,51.52Z"/><path class="cls-2" d="M409.39,8a53.5,53.5,0,1,1-53.5,53.5A53.56,53.56,0,0,1,409.39,8m0-8a61.5,61.5,0,1,0,61.5,61.5A61.5,61.5,0,0,0,409.39,0Z"/><path class="cls-2" d="M410.56,26a28.34,28.34,0,1,1-28.33,28.33A28.36,28.36,0,0,1,410.56,26m0-4a32.34,32.34,0,1,0,32.33,32.33A32.33,32.33,0,0,0,410.56,22Z"/><path class="cls-2" d="M410.39,30a24.17,24.17,0,1,0,24.17,24.17A24.17,24.17,0,0,0,410.39,30Zm0,30.33a6.17,6.17,0,1,1,6.17-6.16A6.16,6.16,0,0,1,410.39,60.33Z"/><path class="cls-2" d="M282.46,111h-25.1l-4,11.88H236.18l24.34-67.26h19l24.33,67.26H286.48Zm-4.22-12.65-8.33-24.62-8.24,24.62Z"/><path class="cls-2" d="M332.38,110.25h21.46V122.9H316V55.64h16.39Z"/><path class="cls-2" d="M68.22,55.64,44.36,122.9H23.86L0,55.64H17.44l16.67,50.78L50.88,55.64Z"/><path class="cls-2" d="M96.19,55.64V122.9H79.81V55.64Z"/><path class="cls-2" d="M147.17,122.9l-14-25.39h-3.93V122.9H112.87V55.64h27.49a30.33,30.33,0,0,1,13.56,2.78A19.1,19.1,0,0,1,162.3,66a21.2,21.2,0,0,1,2.78,10.78,20,20,0,0,1-3.78,12,20.44,20.44,0,0,1-11.16,7.47l15.52,26.64Zm-17.92-37h10.16q4.5,0,6.75-2.21a8.32,8.32,0,0,0,2.25-6.23,8.06,8.06,0,0,0-2.25-6q-2.25-2.2-6.75-2.21H129.25Z"/><path class="cls-2" d="M179.25,160.4a6.14,6.14,0,0,1,2.41-2.51,7.7,7.7,0,0,1,7.72.31,5.93,5.93,0,0,1,2.23,3.42h-3.1a3.27,3.27,0,0,0-1.22-1.61,3.53,3.53,0,0,0-2.09-.58,3.47,3.47,0,0,0-2.82,1.25,5.25,5.25,0,0,0-1,3.49,5.32,5.32,0,0,0,1,3.51A3.49,3.49,0,0,0,185.2,169a3.21,3.21,0,0,0,3.31-2.2h3.1a6.2,6.2,0,0,1-2.27,3.37,6.72,6.72,0,0,1-4.14,1.25,6.9,6.9,0,0,1-3.54-.9,6.29,6.29,0,0,1-2.41-2.52,8.63,8.63,0,0,1,0-7.55Z"/><path class="cls-2" d="M199.05,157.59a5,5,0,0,1,2.48-.59v3h-.73a3.5,3.5,0,0,0-2.56.86,4.11,4.11,0,0,0-.87,3v7.32h-2.88V157.23h2.88v2A4.53,4.53,0,0,1,199.05,157.59Z"/><path class="cls-2" d="M216.84,165.26H206.21a3.82,3.82,0,0,0,1.23,2.67,3.89,3.89,0,0,0,2.73,1,3.36,3.36,0,0,0,3.28-1.95h3.11a6.19,6.19,0,0,1-2.29,3.14,6.68,6.68,0,0,1-4.1,1.23,7.07,7.07,0,0,1-3.57-.9,6.4,6.4,0,0,1-2.48-2.52,8.54,8.54,0,0,1,0-7.55,6,6,0,0,1,2.45-2.51,7.27,7.27,0,0,1,3.62-.89,7.13,7.13,0,0,1,3.51.86,6,6,0,0,1,2.4,2.41,7.31,7.31,0,0,1,.86,3.57A10,10,0,0,1,216.84,165.26Zm-2.91-2.32a3.29,3.29,0,0,0-1.13-2.56,4.11,4.11,0,0,0-2.76-.95,3.71,3.71,0,0,0-2.55.94,4,4,0,0,0-1.26,2.57Z"/><path class="cls-2" d="M219.68,160.41a6.35,6.35,0,0,1,5.69-3.41,6.1,6.1,0,0,1,2.87.65,5.75,5.75,0,0,1,1.95,1.6v-2h2.91v13.91h-2.91v-2.07a5.71,5.71,0,0,1-2,1.64,6.44,6.44,0,0,1-6.16-.26,6.55,6.55,0,0,1-2.36-2.58,7.92,7.92,0,0,1-.87-3.75A7.7,7.7,0,0,1,219.68,160.41Zm9.92,1.26a4.22,4.22,0,0,0-1.55-1.61,4.07,4.07,0,0,0-2.07-.56,4.15,4.15,0,0,0-2.07.54,4.26,4.26,0,0,0-1.56,1.59,5,5,0,0,0-.59,2.49,5.28,5.28,0,0,0,.59,2.53,4.24,4.24,0,0,0,1.57,1.65,4,4,0,0,0,2.06.57,4.07,4.07,0,0,0,2.07-.56,4.14,4.14,0,0,0,1.55-1.63,5.61,5.61,0,0,0,0-5Z"/><path class="cls-2" d="M240.24,159.58v7.7a1.45,1.45,0,0,0,.37,1.12,1.8,1.8,0,0,0,1.25.34h1.77v2.4h-2.28a4.37,4.37,0,0,1-3-.91,3.73,3.73,0,0,1-1-2.95v-7.7H235.7v-2.35h1.64v-3.46h2.9v3.46h3.39v2.35Z"/><path class="cls-2" d="M246.43,154.86a1.83,1.83,0,0,1-.53-1.32,1.81,1.81,0,0,1,1.84-1.84,1.76,1.76,0,0,1,1.29.53,1.79,1.79,0,0,1,.53,1.31,1.83,1.83,0,0,1-.53,1.32,1.76,1.76,0,0,1-1.29.53A1.79,1.79,0,0,1,246.43,154.86Zm2.73,2.37v13.91h-2.88V157.23Z"/><path class="cls-2" d="M258.32,168.57l3.94-11.34h3.06L260,171.14h-3.43l-5.28-13.91h3.08Z"/><path class="cls-2" d="M280.14,165.26H269.51a3.82,3.82,0,0,0,1.23,2.67,3.89,3.89,0,0,0,2.73,1,3.36,3.36,0,0,0,3.28-1.95h3.11a6.19,6.19,0,0,1-2.29,3.14,6.68,6.68,0,0,1-4.1,1.23,7.07,7.07,0,0,1-3.57-.9,6.4,6.4,0,0,1-2.48-2.52,8.54,8.54,0,0,1,0-7.55,6.05,6.05,0,0,1,2.45-2.51,7.27,7.27,0,0,1,3.62-.89,7.13,7.13,0,0,1,3.51.86,6,6,0,0,1,2.4,2.41,7.31,7.31,0,0,1,.86,3.57A10,10,0,0,1,280.14,165.26Zm-2.91-2.32a3.29,3.29,0,0,0-1.13-2.56,4.11,4.11,0,0,0-2.76-.95,3.71,3.71,0,0,0-2.55.94,4,4,0,0,0-1.26,2.57Z"/><path class="cls-2" d="M289.54,160.4a6.14,6.14,0,0,1,2.41-2.51,7.7,7.7,0,0,1,7.72.31,5.93,5.93,0,0,1,2.23,3.42h-3.1a3.27,3.27,0,0,0-1.22-1.61,3.53,3.53,0,0,0-2.09-.58,3.47,3.47,0,0,0-2.82,1.25,5.25,5.25,0,0,0-1,3.49,5.32,5.32,0,0,0,1,3.51,3.49,3.49,0,0,0,2.82,1.27,3.2,3.2,0,0,0,3.31-2.2h3.1a6.2,6.2,0,0,1-2.27,3.37,6.72,6.72,0,0,1-4.14,1.25,6.9,6.9,0,0,1-3.54-.9,6.29,6.29,0,0,1-2.41-2.52,8.63,8.63,0,0,1,0-7.55Z"/><path class="cls-2" d="M307.26,170.47a6.32,6.32,0,0,1-2.5-2.52,7.61,7.61,0,0,1-.91-3.78,7.49,7.49,0,0,1,.93-3.76,6.37,6.37,0,0,1,2.55-2.52,7.77,7.77,0,0,1,7.22,0,6.37,6.37,0,0,1,2.55,2.52,7.39,7.39,0,0,1,.94,3.76,7.28,7.28,0,0,1-1,3.76,6.53,6.53,0,0,1-2.62,2.54,7.47,7.47,0,0,1-3.64.9A7.08,7.08,0,0,1,307.26,170.47Zm5.64-2.13a4,4,0,0,0,1.58-1.59,5.89,5.89,0,0,0,0-5.14A3.91,3.91,0,0,0,313,160a4.25,4.25,0,0,0-2.07-.53,4.19,4.19,0,0,0-2.06.53,3.76,3.76,0,0,0-1.5,1.58,5.41,5.41,0,0,0-.55,2.56,4.89,4.89,0,0,0,1.14,3.47,3.8,3.8,0,0,0,2.9,1.23A4.32,4.32,0,0,0,312.9,168.34Z"/><path class="cls-2" d="M330.85,157.68a4.82,4.82,0,0,1,2,2,6.66,6.66,0,0,1,.74,3.24v8.2h-2.86v-7.78a4,4,0,0,0-.93-2.86,3.31,3.31,0,0,0-2.55-1,3.37,3.37,0,0,0-2.57,1,4,4,0,0,0-.94,2.86v7.78h-2.88V157.23h2.88v1.59a4.78,4.78,0,0,1,1.8-1.34,5.8,5.8,0,0,1,2.34-.48A6.31,6.31,0,0,1,330.85,157.68Z"/><path class="cls-2" d="M340.64,159.58v7.7a1.49,1.49,0,0,0,.36,1.12,1.82,1.82,0,0,0,1.25.34H344v2.4h-2.27a4.35,4.35,0,0,1-3-.91,3.73,3.73,0,0,1-1-2.95v-7.7h-1.64v-2.35h1.64v-3.46h2.91v3.46H344v2.35Z"/><path class="cls-2" d="M359.32,165.26H348.69a3.83,3.83,0,0,0,1.24,2.67,3.88,3.88,0,0,0,2.72,1,3.38,3.38,0,0,0,3.29-1.95H359a6.23,6.23,0,0,1-2.28,3.14,6.69,6.69,0,0,1-4.11,1.23,7.07,7.07,0,0,1-3.57-.9,6.31,6.31,0,0,1-2.47-2.52,7.71,7.71,0,0,1-.9-3.78,7.86,7.86,0,0,1,.87-3.77,6.05,6.05,0,0,1,2.45-2.51,7.27,7.27,0,0,1,3.62-.89,7.08,7.08,0,0,1,3.51.86,6,6,0,0,1,2.4,2.41,7.31,7.31,0,0,1,.86,3.57A8.7,8.7,0,0,1,359.32,165.26Zm-2.9-2.32a3.33,3.33,0,0,0-1.14-2.56,4.1,4.1,0,0,0-2.75-.95,3.67,3.67,0,0,0-2.55.94,3.93,3.93,0,0,0-1.26,2.57Z"/><path class="cls-2" d="M372.21,157.68a4.88,4.88,0,0,1,2,2,6.66,6.66,0,0,1,.74,3.24v8.2h-2.86v-7.78a4,4,0,0,0-.93-2.86,3.33,3.33,0,0,0-2.55-1,3.37,3.37,0,0,0-2.57,1,4,4,0,0,0-.94,2.86v7.78h-2.88V157.23h2.88v1.59a4.78,4.78,0,0,1,1.8-1.34,5.76,5.76,0,0,1,2.34-.48A6.31,6.31,0,0,1,372.21,157.68Z"/><path class="cls-2" d="M382,159.58v7.7a1.49,1.49,0,0,0,.37,1.12,1.8,1.8,0,0,0,1.25.34h1.77v2.4h-2.27a4.35,4.35,0,0,1-3-.91,3.73,3.73,0,0,1-1-2.95v-7.7h-1.64v-2.35h1.64v-3.46H382v3.46h3.39v2.35Z"/><path class="cls-2" d="M408.15,171.14,406,169a8.49,8.49,0,0,1-2.75,1.88,8.66,8.66,0,0,1-3.33.62,7.85,7.85,0,0,1-3.31-.66,5,5,0,0,1-2.22-1.88,5.07,5.07,0,0,1-.79-2.84,5.38,5.38,0,0,1,1-3.24,6.88,6.88,0,0,1,3.08-2.26,6.39,6.39,0,0,1-1-1.66,4.63,4.63,0,0,1-.3-1.7,3.74,3.74,0,0,1,.59-2.07,4.06,4.06,0,0,1,1.71-1.44,6,6,0,0,1,2.57-.53,5.24,5.24,0,0,1,2.54.57,3.73,3.73,0,0,1,1.57,1.55,4,4,0,0,1,.41,2.2h-2.87a2,2,0,0,0-.46-1.46,1.72,1.72,0,0,0-1.31-.51,1.85,1.85,0,0,0-1.35.49,1.58,1.58,0,0,0-.52,1.2,2.68,2.68,0,0,0,.39,1.35,10.62,10.62,0,0,0,1.38,1.73l4.64,4.62,1.8-3h3.1l-2.27,3.88-.63,1,4.27,4.24Zm-4.06-4.06-4.65-4.67q-3,1.18-3,3.58a2.8,2.8,0,0,0,1,2.16,3.56,3.56,0,0,0,2.48.87A5.6,5.6,0,0,0,404.09,167.08Z"/><path class="cls-2" d="M440.16,157.68a5,5,0,0,1,2,2,6.55,6.55,0,0,1,.75,3.24v8.2h-2.86v-7.78a4,4,0,0,0-.93-2.86,3.3,3.3,0,0,0-2.55-1,3.34,3.34,0,0,0-2.56,1,4,4,0,0,0-.95,2.86v7.78h-2.85v-7.78a4,4,0,0,0-.94-2.86,3.3,3.3,0,0,0-2.55-1,3.34,3.34,0,0,0-2.56,1,4,4,0,0,0-.95,2.86v7.78h-2.88V157.23h2.88v1.59a4.83,4.83,0,0,1,1.79-1.34,5.72,5.72,0,0,1,2.33-.48,6.22,6.22,0,0,1,3,.71,4.85,4.85,0,0,1,2,2,4.58,4.58,0,0,1,2-2,5.77,5.77,0,0,1,2.87-.75A6.32,6.32,0,0,1,440.16,157.68Z"/><path class="cls-2" d="M459.26,165.26H448.63a3.79,3.79,0,0,0,1.24,2.67,3.88,3.88,0,0,0,2.72,1,3.35,3.35,0,0,0,3.28-1.95H459a6.23,6.23,0,0,1-2.28,3.14,6.71,6.71,0,0,1-4.11,1.23,7.07,7.07,0,0,1-3.57-.9,6.31,6.31,0,0,1-2.47-2.52,7.71,7.71,0,0,1-.9-3.78,7.86,7.86,0,0,1,.87-3.77,6.05,6.05,0,0,1,2.45-2.51,7.27,7.27,0,0,1,3.62-.89,7.1,7.1,0,0,1,3.51.86,6,6,0,0,1,2.4,2.41,7.31,7.31,0,0,1,.86,3.57A8.7,8.7,0,0,1,459.26,165.26Zm-2.9-2.32a3.33,3.33,0,0,0-1.14-2.56,4.1,4.1,0,0,0-2.75-.95,3.67,3.67,0,0,0-2.55.94,4,4,0,0,0-1.27,2.57Z"/><path class="cls-2" d="M462.1,160.41a6.35,6.35,0,0,1,5.72-3.41,6.63,6.63,0,0,1,2.69.59,5.72,5.72,0,0,1,2.11,1.58v-6.71h2.9v18.68h-2.9v-2.09a5.54,5.54,0,0,1-2,1.66,6,6,0,0,1-2.87.66,6.26,6.26,0,0,1-3.32-.92,6.57,6.57,0,0,1-2.37-2.58,7.92,7.92,0,0,1-.87-3.75A7.7,7.7,0,0,1,462.1,160.41Zm9.92,1.26a4.15,4.15,0,0,0-1.55-1.61,4.07,4.07,0,0,0-2.07-.56,4.06,4.06,0,0,0-3.62,2.13,4.94,4.94,0,0,0-.6,2.49,5.17,5.17,0,0,0,.6,2.53,4.15,4.15,0,0,0,1.56,1.65,4,4,0,0,0,2.06.57,4.07,4.07,0,0,0,3.62-2.19,5.53,5.53,0,0,0,0-5Z"/><path class="cls-2" d="M479.46,154.86a1.79,1.79,0,0,1-.53-1.32,1.75,1.75,0,0,1,.53-1.31,1.79,1.79,0,0,1,1.31-.53,1.76,1.76,0,0,1,1.29.53,1.79,1.79,0,0,1,.53,1.31,1.83,1.83,0,0,1-.53,1.32,1.76,1.76,0,0,1-1.29.53A1.79,1.79,0,0,1,479.46,154.86Zm2.73,2.37v13.91h-2.88V157.23Z"/><path class="cls-2" d="M485.88,160.41a6.38,6.38,0,0,1,5.7-3.41,6,6,0,0,1,2.86.65,5.69,5.69,0,0,1,2,1.6v-2h2.9v13.91h-2.9v-2.07a5.71,5.71,0,0,1-2,1.64,6.46,6.46,0,0,1-6.17-.26,6.62,6.62,0,0,1-2.36-2.58,7.92,7.92,0,0,1-.87-3.75A7.7,7.7,0,0,1,485.88,160.41Zm9.93,1.26a4.24,4.24,0,0,0-1.56-1.61,4.07,4.07,0,0,0-2.07-.56,4.15,4.15,0,0,0-2.07.54,4.23,4.23,0,0,0-1.55,1.59,4.93,4.93,0,0,0-.59,2.49,5.17,5.17,0,0,0,.59,2.53,4.24,4.24,0,0,0,1.57,1.65,4,4,0,0,0,2.05.57,4.07,4.07,0,0,0,2.07-.56,4.16,4.16,0,0,0,1.56-1.63,5.61,5.61,0,0,0,0-5Z"/><path class="cls-2" d="M511.76,170.78a5.22,5.22,0,0,1-2.05-1.62,4,4,0,0,1-.81-2.29h3a2,2,0,0,0,.84,1.48,3.07,3.07,0,0,0,1.94.6,3.29,3.29,0,0,0,1.88-.47,1.42,1.42,0,0,0,.67-1.2,1.23,1.23,0,0,0-.75-1.16,13.82,13.82,0,0,0-2.36-.84,22,22,0,0,1-2.55-.83,4.33,4.33,0,0,1-1.7-1.24,3.21,3.21,0,0,1-.72-2.19,3.44,3.44,0,0,1,.65-2,4.5,4.5,0,0,1,1.88-1.45,7.13,7.13,0,0,1,2.82-.53,5.79,5.79,0,0,1,3.82,1.2,4.32,4.32,0,0,1,1.56,3.27H517a2,2,0,0,0-.76-1.49,2.82,2.82,0,0,0-1.84-.55,3,3,0,0,0-1.74.42A1.33,1.33,0,0,0,512,161a1.25,1.25,0,0,0,.4.94,2.87,2.87,0,0,0,1,.59c.39.14,1,.32,1.72.54a18.41,18.41,0,0,1,2.48.82,4.63,4.63,0,0,1,1.68,1.23,3.2,3.2,0,0,1,.73,2.14,3.57,3.57,0,0,1-.65,2.12,4.31,4.31,0,0,1-1.86,1.47,7,7,0,0,1-2.81.53A7.13,7.13,0,0,1,511.76,170.78Z"/><path class="cls-2" d="M525.61,170.47a6.44,6.44,0,0,1-2.5-2.52,7.71,7.71,0,0,1-.9-3.78,7.49,7.49,0,0,1,.93-3.76,6.37,6.37,0,0,1,2.55-2.52,7.77,7.77,0,0,1,7.22,0,6.37,6.37,0,0,1,2.55,2.52,7.39,7.39,0,0,1,.94,3.76,7.28,7.28,0,0,1-1,3.76,6.53,6.53,0,0,1-2.62,2.54,7.5,7.5,0,0,1-3.64.9A7.15,7.15,0,0,1,525.61,170.47Zm5.65-2.13a4,4,0,0,0,1.58-1.59,5.89,5.89,0,0,0,0-5.14,3.91,3.91,0,0,0-1.54-1.58,4.25,4.25,0,0,0-2.07-.53,4.19,4.19,0,0,0-2.06.53,3.76,3.76,0,0,0-1.5,1.58,5.41,5.41,0,0,0-.55,2.56,4.89,4.89,0,0,0,1.14,3.47,3.8,3.8,0,0,0,2.9,1.23A4.32,4.32,0,0,0,531.26,168.34Z"/><path class="cls-2" d="M542.13,152.46v18.68h-2.88V152.46Z"/><path class="cls-2" d="M558.51,157.23v13.91h-2.87V169.5a4.76,4.76,0,0,1-1.78,1.35,5.64,5.64,0,0,1-2.34.49,6.19,6.19,0,0,1-2.94-.68,4.92,4.92,0,0,1-2.05-2,6.62,6.62,0,0,1-.74-3.23v-8.18h2.85V165a4,4,0,0,0,.94,2.87,3.33,3.33,0,0,0,2.55,1,3.38,3.38,0,0,0,2.56-1,4,4,0,0,0,.95-2.87v-7.75Z"/><path class="cls-2" d="M565.66,159.58v7.7a1.45,1.45,0,0,0,.37,1.12,1.8,1.8,0,0,0,1.25.34H569v2.4h-2.27a4.35,4.35,0,0,1-3-.91,3.73,3.73,0,0,1-1-2.95v-7.7h-1.65v-2.35h1.65v-3.46h2.9v3.46H569v2.35Z"/><path class="cls-2" d="M571.85,154.86a1.79,1.79,0,0,1-.53-1.32,1.75,1.75,0,0,1,.53-1.31,1.83,1.83,0,0,1,3.13,1.31,1.83,1.83,0,0,1-.53,1.32,1.86,1.86,0,0,1-2.6,0Zm2.72,2.37v13.91H571.7V157.23Z"/><path class="cls-2" d="M580.84,170.47a6.38,6.38,0,0,1-2.5-2.52,7.61,7.61,0,0,1-.91-3.78,7.49,7.49,0,0,1,.93-3.76,6.37,6.37,0,0,1,2.55-2.52,7.77,7.77,0,0,1,7.22,0,6.37,6.37,0,0,1,2.55,2.52,7.39,7.39,0,0,1,.94,3.76,7.28,7.28,0,0,1-1,3.76,6.53,6.53,0,0,1-2.62,2.54,7.47,7.47,0,0,1-3.64.9A7.08,7.08,0,0,1,580.84,170.47Zm5.64-2.13a4,4,0,0,0,1.58-1.59,5.89,5.89,0,0,0,0-5.14,3.85,3.85,0,0,0-1.54-1.58,4.29,4.29,0,0,0-4.13,0,3.76,3.76,0,0,0-1.5,1.58,5.41,5.41,0,0,0-.55,2.56,4.89,4.89,0,0,0,1.14,3.47,3.8,3.8,0,0,0,2.9,1.23A4.32,4.32,0,0,0,586.48,168.34Z"/><path class="cls-2" d="M604.43,157.68a4.82,4.82,0,0,1,2,2,6.66,6.66,0,0,1,.74,3.24v8.2h-2.86v-7.78a4,4,0,0,0-.93-2.86,3.31,3.31,0,0,0-2.55-1,3.37,3.37,0,0,0-2.57,1,4,4,0,0,0-.94,2.86v7.78h-2.88V157.23h2.88v1.59a4.78,4.78,0,0,1,1.8-1.34,5.8,5.8,0,0,1,2.34-.48A6.31,6.31,0,0,1,604.43,157.68Z"/><path class="cls-2" d="M613,170.78a5.18,5.18,0,0,1-2.06-1.62,4,4,0,0,1-.81-2.29h3a2,2,0,0,0,.85,1.48,3,3,0,0,0,1.93.6,3.29,3.29,0,0,0,1.88-.47,1.42,1.42,0,0,0,.67-1.2,1.23,1.23,0,0,0-.75-1.16,13.5,13.5,0,0,0-2.36-.84,22,22,0,0,1-2.55-.83,4.4,4.4,0,0,1-1.7-1.24,3.21,3.21,0,0,1-.72-2.19,3.51,3.51,0,0,1,.65-2,4.5,4.5,0,0,1,1.88-1.45,7.13,7.13,0,0,1,2.82-.53,5.83,5.83,0,0,1,3.83,1.2,4.34,4.34,0,0,1,1.55,3.27h-2.88a2,2,0,0,0-.76-1.49,2.82,2.82,0,0,0-1.84-.55,3,3,0,0,0-1.74.42,1.33,1.33,0,0,0-.61,1.14,1.25,1.25,0,0,0,.4.94,2.87,2.87,0,0,0,1,.59c.39.14,1,.32,1.72.54a17.94,17.94,0,0,1,2.48.82,4.63,4.63,0,0,1,1.68,1.23,3.26,3.26,0,0,1,.74,2.14,3.58,3.58,0,0,1-.66,2.12,4.31,4.31,0,0,1-1.86,1.47,7,7,0,0,1-2.81.53A7,7,0,0,1,613,170.78Z"/></g></g></svg>