<svg id="Ebene_1" data-name="Ebene 1" xmlns="http://www.w3.org/2000/svg" viewBox="0 0 1370 1627.38"><defs><style>.cls-1{fill:#222;}.cls-2,.cls-5{fill:none;stroke-miterlimit:10;stroke-width:2px;}.cls-2{stroke:#222;}.cls-3{fill:#c00;}.cls-4{fill:#efefef;}.cls-5{stroke:#efefef;}</style></defs><rect class="cls-1" y="857.38" width="1370" height="770"/><circle class="cls-1" cx="940.34" cy="43.12" r="4.97"/><path class="cls-1" d="M940.34,426.11a42.37,42.37,0,1,1,42.36-42.37A42.42,42.42,0,0,1,940.34,426.11Zm0-30.54a10.9,10.9,0,1,0,10.9,10.9A10.91,10.91,0,0,0,940.34,395.57Zm22.72-22.73A10.91,10.91,0,1,0,974,383.74,10.91,10.91,0,0,0,963.06,372.84Zm-45.45,0a10.91,10.91,0,1,0,10.9,10.9A10.91,10.91,0,0,0,917.61,372.84Zm22.73,3.55a7.35,7.35,0,1,0,7.35,7.35A7.36,7.36,0,0,0,940.34,376.39Zm0-26.28a10.91,10.91,0,1,0,10.9,10.9A10.91,10.91,0,0,0,940.34,350.11Z" transform="translate(0 -340.62)"/><path class="cls-1" d="M940.34,341.62a42.12,42.12,0,1,1-42.12,42.12,42.17,42.17,0,0,1,42.12-42.12m0,30.55A11.16,11.16,0,1,0,929.18,361a11.17,11.17,0,0,0,11.16,11.16m22.72,22.73a11.16,11.16,0,1,0-11.15-11.16,11.17,11.17,0,0,0,11.15,11.16m-45.45,0a11.16,11.16,0,1,0-11.16-11.16,11.17,11.17,0,0,0,11.16,11.16m22.73-3.56a7.6,7.6,0,1,0-7.61-7.6,7.61,7.61,0,0,0,7.61,7.6m0,26.28a11.15,11.15,0,1,0-11.16-11.15,11.16,11.16,0,0,0,11.16,11.15m0-76.5A42.62,42.62,0,1,0,983,383.74a42.62,42.62,0,0,0-42.61-42.62Zm0,30.55A10.66,10.66,0,1,1,951,361a10.66,10.66,0,0,1-10.65,10.66Zm22.72,22.73a10.66,10.66,0,1,1,10.66-10.66,10.65,10.65,0,0,1-10.66,10.66Zm-45.45,0a10.66,10.66,0,1,1,10.65-10.66,10.66,10.66,0,0,1-10.65,10.66Zm22.73-3.56a7.1,7.1,0,1,1,7.1-7.1,7.1,7.1,0,0,1-7.1,7.1Zm0,26.28A10.65,10.65,0,1,1,951,406.47a10.65,10.65,0,0,1-10.65,10.65Z" transform="translate(0 -340.62)"/><path class="cls-2" d="M1014.63,484.88c-26.72-11.57-35.72-41.43-27.65-72.36,9.31-35.7-6-63.42-37.24-69.13" transform="translate(0 -340.62)"/><path class="cls-1" d="M581.59,423.7a24.84,24.84,0,0,1-10.32-8.21,21,21,0,0,1-3.86-12.12h11.71a15.4,15.4,0,0,0,4.88,9.95q4.29,4.05,12.49,4,7.85,0,12.37-3.92a12.7,12.7,0,0,0,4.52-10.07,11.44,11.44,0,0,0-2.65-7.85,16.87,16.87,0,0,0-6.64-4.58,102.69,102.69,0,0,0-10.74-3.38A96,96,0,0,1,580,383.22a21.52,21.52,0,0,1-8.57-6.82q-3.56-4.65-3.56-12.49a21.66,21.66,0,0,1,3.5-12.19,22.8,22.8,0,0,1,9.84-8.2,34.62,34.62,0,0,1,14.54-2.9q11.82,0,19.36,5.91a21.84,21.84,0,0,1,8.51,15.69H611.57a13,13,0,0,0-5.06-8.51Q602,350,594.68,350q-6.87,0-11.22,3.56c-2.9,2.38-4.34,5.69-4.34,10a10.77,10.77,0,0,0,2.59,7.48,16.64,16.64,0,0,0,6.4,4.4q3.79,1.51,10.67,3.44a100.41,100.41,0,0,1,13.4,4.53,22.45,22.45,0,0,1,8.69,6.87q3.61,4.65,3.61,12.61a22.15,22.15,0,0,1-3.25,11.59,23.88,23.88,0,0,1-9.66,8.8,31.75,31.75,0,0,1-15.08,3.38A36,36,0,0,1,581.59,423.7Z" transform="translate(0 -340.62)"/><path class="cls-1" d="M692.42,341.71v8.93H669.49v75.17h-11V350.64h-23v-8.93Z" transform="translate(0 -340.62)"/><path class="cls-1" d="M716.67,341.71v53.21q0,11.22,5.49,16.65T737.42,417q9.66,0,15.14-5.43t5.5-16.65V341.71h11V394.8q0,10.5-4.23,17.68a26.51,26.51,0,0,1-11.4,10.67,38.83,38.83,0,0,1-32.22,0,26.2,26.2,0,0,1-11.34-10.67q-4.15-7.19-4.16-17.68V341.71Z" transform="translate(0 -340.62)"/><path class="cls-1" d="M837.39,346.83a36,36,0,0,1,15.44,14.67q5.37,9.53,5.37,22.44t-5.37,22.38a35.37,35.37,0,0,1-15.44,14.48q-10.08,5-23.83,5H787.38v-84.1h26.18Q827.32,341.71,837.39,346.83Zm1,61.3q8.57-8.62,8.56-24.19t-8.62-24.5q-8.64-8.81-24.8-8.8H798.35v66.12h15.21Q829.85,416.76,838.42,408.13Z" transform="translate(0 -340.62)"/><path class="cls-1" d="M883.66,341.71v84.1h-11v-84.1Z" transform="translate(0 -340.62)"/><path class="cls-1" d="M1014,423.7a24.78,24.78,0,0,1-10.32-8.21,21,21,0,0,1-3.86-12.12h11.7a15.37,15.37,0,0,0,4.89,9.95q4.27,4.05,12.49,4,7.85,0,12.37-3.92a12.73,12.73,0,0,0,4.52-10.07,11.44,11.44,0,0,0-2.65-7.85,16.87,16.87,0,0,0-6.64-4.58,102.69,102.69,0,0,0-10.74-3.38,96,96,0,0,1-13.33-4.34,21.45,21.45,0,0,1-8.57-6.82q-3.55-4.65-3.56-12.49a21.66,21.66,0,0,1,3.5-12.19,22.74,22.74,0,0,1,9.84-8.2,34.59,34.59,0,0,1,14.54-2.9q11.82,0,19.36,5.91a21.87,21.87,0,0,1,8.51,15.69H1044a13,13,0,0,0-5.07-8.51c-3-2.45-6.92-3.68-11.82-3.68q-6.88,0-11.22,3.56c-2.9,2.38-4.35,5.69-4.35,10a10.78,10.78,0,0,0,2.6,7.48,16.68,16.68,0,0,0,6.39,4.4q3.81,1.51,10.68,3.44a99.71,99.71,0,0,1,13.39,4.53,22.37,22.37,0,0,1,8.69,6.87q3.63,4.65,3.62,12.61a22.07,22.07,0,0,1-3.26,11.59,23.91,23.91,0,0,1-9.65,8.8,31.75,31.75,0,0,1-15.08,3.38A36,36,0,0,1,1014,423.7Z" transform="translate(0 -340.62)"/><path class="cls-3" d="M392.07,341.12,360.94,426H340.27l-31.13-84.88h18.24l23.34,67.49L374,341.12Z" transform="translate(0 -340.62)"/><path class="cls-3" d="M454.69,341.12v13.74H419.31v21.77h27.11v13.5H419.31V426h-17V341.12Z" transform="translate(0 -340.62)"/><path class="cls-3" d="M517.56,426,499.2,397.42,482.54,426H463.33l26.75-42.8L463,341.12h19.58l18.36,28.46,16.54-28.46h19.21L510,383.8,537.14,426Z" transform="translate(0 -340.62)"/><circle class="cls-4" cx="942.32" cy="828.49" r="4.97"/><path class="cls-4" d="M942.32,1211.47a42.37,42.37,0,1,1,42.36-42.36A42.41,42.41,0,0,1,942.32,1211.47Zm0-30.54a10.91,10.91,0,1,0,10.9,10.9A10.91,10.91,0,0,0,942.32,1180.93ZM965,1158.2A10.91,10.91,0,1,0,976,1169.11,10.91,10.91,0,0,0,965,1158.2Zm-45.45,0a10.91,10.91,0,1,0,10.9,10.91A10.92,10.92,0,0,0,919.59,1158.2Zm22.73,3.55a7.36,7.36,0,1,0,7.35,7.36A7.37,7.37,0,0,0,942.32,1161.75Zm0-26.28a10.91,10.91,0,1,0,10.9,10.91A10.92,10.92,0,0,0,942.32,1135.47Z" transform="translate(0 -340.62)"/><path class="cls-4" d="M942.32,1127a42.12,42.12,0,1,1-42.12,42.12A42.16,42.16,0,0,1,942.32,1127m0,30.54a11.16,11.16,0,1,0-11.16-11.15,11.16,11.16,0,0,0,11.16,11.15m22.73,22.73a11.16,11.16,0,1,0-11.16-11.15,11.16,11.16,0,0,0,11.16,11.15m-45.46,0a11.16,11.16,0,1,0-11.16-11.15,11.16,11.16,0,0,0,11.16,11.15m22.73-3.55a7.61,7.61,0,1,0-7.61-7.6,7.61,7.61,0,0,0,7.61,7.6m0,26.28a11.16,11.16,0,1,0-11.16-11.15A11.16,11.16,0,0,0,942.32,1203m0-76.5a42.62,42.62,0,1,0,42.61,42.62,42.62,42.62,0,0,0-42.61-42.62Zm0,30.54A10.66,10.66,0,1,1,953,1146.38,10.65,10.65,0,0,1,942.32,1157Zm22.73,22.73a10.66,10.66,0,1,1,10.65-10.65,10.65,10.65,0,0,1-10.65,10.65Zm-45.46,0a10.66,10.66,0,1,1,10.65-10.65,10.65,10.65,0,0,1-10.65,10.65Zm22.73-3.55a7.11,7.11,0,1,1,7.1-7.1,7.1,7.1,0,0,1-7.1,7.1Zm0,26.28A10.66,10.66,0,1,1,953,1191.84a10.65,10.65,0,0,1-10.65,10.65Z" transform="translate(0 -340.62)"/><path class="cls-5" d="M1016.61,1270.24c-26.72-11.56-35.72-41.42-27.65-72.35,9.31-35.7-6-63.42-37.23-69.14" transform="translate(0 -340.62)"/><path class="cls-4" d="M583.57,1209.06a24.82,24.82,0,0,1-10.32-8.2,21,21,0,0,1-3.86-12.13H581.1a15.45,15.45,0,0,0,4.88,10q4.29,4,12.49,4,7.85,0,12.37-3.92a12.73,12.73,0,0,0,4.52-10.08,11.42,11.42,0,0,0-2.65-7.84,17,17,0,0,0-6.64-4.59,105.66,105.66,0,0,0-10.73-3.38,93.14,93.14,0,0,1-13.34-4.34,21.52,21.52,0,0,1-8.57-6.82q-3.55-4.63-3.55-12.49a21.65,21.65,0,0,1,3.49-12.18,22.82,22.82,0,0,1,9.84-8.21,34.62,34.62,0,0,1,14.54-2.89q11.82,0,19.36,5.91a21.82,21.82,0,0,1,8.51,15.68H613.55a13,13,0,0,0-5.06-8.5q-4.47-3.67-11.83-3.68-6.87,0-11.22,3.56t-4.34,10a10.77,10.77,0,0,0,2.59,7.48,16.77,16.77,0,0,0,6.4,4.41q3.79,1.5,10.67,3.44a100.57,100.57,0,0,1,13.4,4.52,22.38,22.38,0,0,1,8.69,6.88q3.61,4.65,3.62,12.61a22.16,22.16,0,0,1-3.26,11.58,23.9,23.9,0,0,1-9.66,8.81,31.87,31.87,0,0,1-15.08,3.38A36,36,0,0,1,583.57,1209.06Z" transform="translate(0 -340.62)"/><path class="cls-4" d="M694.4,1127.07V1136H671.47v75.17h-11V1136h-23v-8.93Z" transform="translate(0 -340.62)"/><path class="cls-4" d="M718.65,1127.07v53.21q0,11.23,5.49,16.66t15.26,5.43q9.66,0,15.15-5.43t5.49-16.66v-53.21h11v53.09q0,10.5-4.23,17.68a26.42,26.42,0,0,1-11.4,10.68,38.83,38.83,0,0,1-32.22,0,26.17,26.17,0,0,1-11.34-10.68q-4.16-7.17-4.16-17.68v-53.09Z" transform="translate(0 -340.62)"/><path class="cls-4" d="M839.37,1132.2a36.13,36.13,0,0,1,15.45,14.66q5.35,9.54,5.36,22.44t-5.36,22.39a35.5,35.5,0,0,1-15.45,14.48q-10.08,5-23.83,5H789.36v-84.1h26.18Q829.3,1127.07,839.37,1132.2Zm1,61.3q8.57-8.62,8.56-24.2t-8.62-24.49q-8.64-8.8-24.8-8.81h-15.2v66.12h15.2Q831.83,1202.12,840.4,1193.5Z" transform="translate(0 -340.62)"/><path class="cls-4" d="M885.64,1127.07v84.1h-11v-84.1Z" transform="translate(0 -340.62)"/><path class="cls-4" d="M1016,1209.06a24.76,24.76,0,0,1-10.32-8.2,21,21,0,0,1-3.86-12.13h11.7a15.51,15.51,0,0,0,4.89,10q4.29,4,12.49,4,7.85,0,12.37-3.92a12.76,12.76,0,0,0,4.52-10.08,11.42,11.42,0,0,0-2.65-7.84,17,17,0,0,0-6.64-4.59,105.15,105.15,0,0,0-10.74-3.38,93.38,93.38,0,0,1-13.33-4.34,21.45,21.45,0,0,1-8.57-6.82q-3.55-4.63-3.56-12.49a21.65,21.65,0,0,1,3.5-12.18,22.76,22.76,0,0,1,9.84-8.21,34.59,34.59,0,0,1,14.54-2.89q11.82,0,19.36,5.91a21.85,21.85,0,0,1,8.51,15.68h-12.07a13,13,0,0,0-5.07-8.5c-3-2.45-6.92-3.68-11.82-3.68q-6.88,0-11.22,3.56t-4.35,10a10.78,10.78,0,0,0,2.6,7.48,16.81,16.81,0,0,0,6.39,4.41q3.81,1.5,10.68,3.44a100.57,100.57,0,0,1,13.4,4.52,22.35,22.35,0,0,1,8.68,6.88q3.63,4.65,3.62,12.61a22.15,22.15,0,0,1-3.25,11.58,24,24,0,0,1-9.66,8.81,31.87,31.87,0,0,1-15.08,3.38A36,36,0,0,1,1016,1209.06Z" transform="translate(0 -340.62)"/><path class="cls-3" d="M394.05,1126.49l-31.13,84.88H342.25l-31.13-84.88h18.24L352.71,1194l23.22-67.49Z" transform="translate(0 -340.62)"/><path class="cls-3" d="M456.67,1126.49v13.74H421.29V1162H448.4v13.49H421.29v35.88h-17v-84.88Z" transform="translate(0 -340.62)"/><path class="cls-3" d="M519.54,1211.37l-18.36-28.58-16.66,28.58H465.31l26.75-42.81-27.12-42.07h19.58l18.36,28.45,16.54-28.45h19.21L512,1169.17l27.12,42.2Z" transform="translate(0 -340.62)"/></svg>